<?xml version="1.0" encoding="iso-8859-1"?>
<!-- Uploaded to: SVG Repo, www.svgrepo.com, Generator: SVG Repo Mixer Tools -->
<svg height="800px" width="800px" version="1.1" id="Layer_1" xmlns="http://www.w3.org/2000/svg" xmlns:xlink="http://www.w3.org/1999/xlink" 
	 viewBox="0 0 512 512" xml:space="preserve">
<path style="fill:#FFB792;" d="M445.208,222.138c6.749,6.75,2.655,20.668,6.092,28.971c3.563,8.607,16.181,15.624,16.179,24.796
	c0.003,9.167-12.619,16.189-16.179,24.796c-3.436,8.302,0.658,22.22-6.091,28.969c-6.751,6.751-20.665,2.655-28.97,6.091
	c-8.608,3.561-15.629,16.182-24.798,16.178c-9.173,0.002-16.188-12.617-24.795-16.179c-8.301-3.438-22.22,0.658-28.969-6.092
	c-6.75-6.75-2.656-20.668-6.093-28.971c-3.561-8.608-16.181-15.622-16.178-24.795c-0.003-9.169,12.617-16.19,16.179-24.796
	c3.436-8.304-0.661-22.219,6.09-28.97c6.751-6.751,20.665-2.655,28.97-6.09c8.609-3.561,15.63-16.181,24.795-16.18
	c9.172-0.001,16.191,12.616,24.796,16.178C424.54,219.483,438.458,215.388,445.208,222.138z"/>
<circle style="fill:#F9D9CA;" cx="391.442" cy="275.905" r="42.822"/>
<circle style="fill:#FFFFFF;" cx="391.442" cy="275.905" r="15.99"/>
<path style="fill:#FFF4BD;" d="M291.736,442.545c-33.477,0-60.617-27.139-60.617-60.617V257.057
	c0-33.479,27.139-60.617,60.617-60.617l0,0c33.48,0,60.619,27.138,60.619,60.617l-0.002,124.869
	C352.352,415.405,325.214,442.545,291.736,442.545L291.736,442.545z"/>
<path style="fill:#FFE783;" d="M255.367,257.057c0-20.056,16.315-36.371,36.37-36.371c20.056,0,36.371,16.315,36.371,36.371v124.869
	c0,20.054-16.315,36.371-36.371,36.371c-20.054,0-36.37-16.316-36.37-36.371L255.367,257.057L255.367,257.057z"/>
<path style="fill:#FFF4BD;" d="M279.614,257.057c0-6.685,5.437-12.124,12.123-12.124c6.684,0,12.125,5.439,12.125,12.124v124.869
	c0,6.684-5.44,12.123-12.125,12.123c-6.685,0-12.123-5.44-12.123-12.123V257.057z"/>
<path style="fill:#B0CE6F;" d="M184.623,221.878c0,14.048-11.388,25.436-25.438,25.436l0,0c-14.048,0-25.436-11.388-25.436-25.436
	l0,0c0-14.049,11.387-25.437,25.436-25.437l0,0C173.234,196.441,184.623,207.829,184.623,221.878L184.623,221.878z"/>
<path style="fill:#FFF4BD;" d="M165.018,308.462v-36.78c0-33.477-27.14-60.617-60.617-60.617c-33.48,0-60.618,27.139-60.618,60.617
	v36.78H165.018z"/>
<path style="fill:#FFE783;" d="M140.771,308.462v-36.78c0-20.055-16.316-36.371-36.37-36.371c-20.055,0-36.372,16.316-36.372,36.371
	v36.78H140.771z"/>
<g>
	<path style="fill:#FFF4BD;" d="M116.524,308.462v-36.78c0-6.685-5.439-12.124-12.123-12.124c-6.686,0-12.125,5.44-12.125,12.124
		v36.78H116.524z"/>
	<path style="fill:#FFF4BD;" d="M201.175,466.024c-33.479,0-60.618-27.138-60.618-60.617V280.537
		c0-33.477,27.139-60.617,60.618-60.617l0,0c33.477,0,60.616,27.139,60.616,60.617v124.871
		C261.791,438.886,234.653,466.024,201.175,466.024L201.175,466.024z"/>
</g>
<path style="fill:#FFE783;" d="M164.805,280.537c0-20.054,16.316-36.371,36.371-36.371s36.369,16.317,36.369,36.371v124.871
	c0,20.055-16.314,36.371-36.369,36.371s-36.371-16.316-36.371-36.371V280.537z"/>
<path style="fill:#FFF4BD;" d="M189.051,280.537c0-6.683,5.439-12.123,12.125-12.123c6.683,0,12.122,5.44,12.122,12.123v124.871
	c0,6.685-5.438,12.123-12.122,12.123c-6.685,0-12.125-5.438-12.125-12.123V280.537z"/>
<path style="fill:#FF8150;" d="M88.219,279.601c0,14.048-11.388,25.437-25.438,25.437l0,0c-14.047,0-25.437-11.389-25.437-25.437
	l0,0c0-14.048,11.389-25.437,25.437-25.437l0,0C76.829,254.164,88.219,265.553,88.219,279.601L88.219,279.601z"/>
<path style="fill:#759B84;" d="M359.588,483.446c0,11.442-9.277,20.717-20.717,20.717H173.133c-11.443,0-20.717-9.276-20.717-20.717
	v-19.337c0-11.442,9.275-20.717,20.717-20.717H338.87c11.441,0,20.717,9.277,20.717,20.717v19.337H359.588z"/>
<path style="opacity:0.1;enable-background:new    ;" d="M196.161,483.446v-19.337c0-11.442,9.275-20.717,20.717-20.717h-43.745
	c-11.443,0-20.717,9.277-20.717,20.717v19.337c0,11.442,9.275,20.717,20.717,20.717h43.745
	C205.435,504.163,196.161,494.888,196.161,483.446z"/>
<path style="fill:#78B591;" d="M199.287,473.778c-96.85,0-175.639-78.792-175.639-175.638c0-6.737,5.461-12.197,12.198-12.197
	h440.315c6.734,0,12.196,5.461,12.196,12.197c0,96.846-78.789,175.638-175.639,175.638H199.287z"/>
<path style="opacity:0.1;enable-background:new    ;" d="M70.01,298.141c0-6.738,5.462-12.197,12.198-12.197H35.846
	c-6.736,0-12.198,5.461-12.198,12.197c0,96.846,78.788,175.638,175.639,175.638h46.362C148.799,473.778,70.01,394.987,70.01,298.141
	z"/>
<g>
	<path style="fill:#609174;" d="M284.819,318.532H26.305c-0.496,0-0.98,0.051-1.451,0.14c0.614,5.251,1.456,10.433,2.523,15.533
		h257.442c4.329,0,7.837-3.509,7.837-7.837C292.656,322.041,289.148,318.532,284.819,318.532z"/>
	<path style="fill:#609174;" d="M116.376,355.964H36.833c-1.124,0-2.192,0.241-3.158,0.668c1.811,5.115,3.853,10.121,6.113,15.006
		h76.589c4.329,0,7.837-3.509,7.837-7.837C124.212,359.472,120.705,355.964,116.376,355.964z"/>
</g>
<g>
	<path style="fill:#F2D8A0;" d="M191.958,162.251h-55.992c-23.405,0-42.446-19.041-42.446-42.446
		c0-23.404,19.041-42.445,42.446-42.445h25.764c4.329,0,7.837,3.509,7.837,7.837s-3.508,7.837-7.837,7.837h-25.764
		c-14.762,0-26.772,12.01-26.772,26.771c0,14.762,12.01,26.772,26.772,26.772h55.992c4.329,0,7.837,3.509,7.837,7.837
		C199.795,158.742,196.287,162.251,191.958,162.251z"/>
	<path style="fill:#F2D8A0;" d="M218.301,93.035h-30.228c-4.329,0-7.837-3.509-7.837-7.837s3.508-7.837,7.837-7.837h30.228
		c17.007,0,30.843-13.837,30.843-30.843s-13.835-30.844-30.843-30.844h-34.13c-4.329,0-7.837-3.509-7.837-7.837S179.843,0,184.172,0
		h34.13c25.649,0,46.517,20.868,46.517,46.518C264.817,72.167,243.95,93.035,218.301,93.035z"/>
</g>
<path style="fill:#FCE9C3;" d="M385.229,103.243h-62.227c-12.969,0-23.522-10.552-23.522-23.522s10.552-23.521,23.522-23.521h21.635
	c4.329,0,7.837-3.509,7.837-7.837s-3.508-7.837-7.837-7.837h-21.635c-21.613,0-39.195,17.582-39.195,39.194
	c0,21.613,17.583,39.195,39.195,39.195h62.227c10.166,0,18.438,8.271,18.438,18.437v17.06c0,4.328,3.508,7.837,7.837,7.837
	c4.329,0,7.837-3.509,7.837-7.837v-17.06C419.339,118.546,404.038,103.243,385.229,103.243z"/>
<path d="M476.16,278.106h-6.681c0.092-0.717,0.154-1.446,0.154-2.198c0.002-8.006-5.534-13.983-9.982-18.786
	c-2.331-2.517-4.742-5.119-5.585-7.155c-0.761-1.837-0.87-5.238-0.978-8.527c-0.216-6.66-0.487-14.949-6.358-20.823
	c-5.871-5.871-14.161-6.141-20.822-6.358c-3.289-0.108-6.69-0.217-8.527-0.978c-2.037-0.843-4.639-3.253-7.157-5.583
	c-4.803-4.447-10.781-9.983-18.787-9.982c-7.998,0-13.973,5.533-18.775,9.979c-2.518,2.332-5.123,4.744-7.163,5.587
	c-1.836,0.76-5.236,0.869-8.524,0.976c-3.417,0.111-7.258,0.243-10.986,1.133c-12.525-16.271-32.182-26.784-54.256-26.784
	c-24.287,0-45.651,12.721-57.804,31.843c-9.735-5.328-20.897-8.362-32.757-8.362c-3.391,0-6.723,0.257-9.983,0.736
	c-3.954-13.958-16.8-24.216-32.008-24.216c-13.327,0-24.84,7.881-30.148,19.223c-7.647-2.964-15.952-4.598-24.636-4.598
	c-33.154,0-60.869,23.693-67.125,55.034c-4.753,5.673-7.649,12.946-7.757,20.884c-7.952,2.656-13.707,10.16-13.707,18.994
	c0,45.508,16.846,89.186,47.434,122.99c2.907,3.211,7.861,3.457,11.07,0.553c3.209-2.904,3.458-7.86,0.553-11.069
	c-27.972-30.92-43.379-70.864-43.379-112.477c0-2.404,1.956-4.36,4.361-4.36h440.315c2.404,0,4.359,1.956,4.359,4.36
	c0,92.526-75.276,167.801-167.802,167.801H199.287c-37.461,0-72.917-12.124-102.54-35.063c-3.421-2.65-8.345-2.025-10.993,1.398
	c-2.65,3.422-2.025,8.345,1.398,10.994c17.5,13.551,36.864,23.643,57.429,30.066v10.108c0,15.745,12.809,28.554,28.554,28.554
	h165.736c15.745,0,28.554-12.809,28.554-28.554v-10.162c74.533-23.331,128.768-93.021,128.768-175.145
	C496.193,287.093,487.207,278.106,476.16,278.106z M357.486,229.921c4.688-0.153,9.538-0.309,14.007-2.158
	c4.636-1.917,8.452-5.451,11.82-8.569c2.647-2.45,6.27-5.807,8.129-5.807c1.861,0,5.487,3.356,8.135,5.809
	c3.366,3.116,7.179,6.648,11.81,8.564c4.47,1.852,9.322,2.009,14.012,2.162c3.902,0.127,8.758,0.285,10.249,1.775
	c1.491,1.492,1.649,6.349,1.775,10.25c0.153,4.691,0.31,9.541,2.161,14.012c1.917,4.632,5.45,8.446,8.566,11.812
	c2.452,2.647,5.809,6.271,5.809,8.138c0,0.586-0.334,1.347-0.867,2.197h-14.252c0.034-0.73,0.061-1.463,0.061-2.203
	c0-26.168-21.29-47.457-47.458-47.457c-12.809,0-24.432,5.119-32.977,13.398c-0.931-4.086-2.217-8.036-3.846-11.81
	C355.59,229.983,356.564,229.951,357.486,229.921z M384.848,278.106c-0.233-0.694-0.364-1.433-0.364-2.203
	c0-3.836,3.12-6.957,6.956-6.957c3.838,0,6.96,3.121,6.96,6.957c0,0.77-0.131,1.509-0.364,2.203H384.848z M391.442,253.274
	c-12.477,0-22.629,10.152-22.629,22.63c0,0.744,0.045,1.477,0.116,2.203h-8.738v-7.965c2.721-14.783,15.694-26.021,31.252-26.021
	c17.526,0,31.785,14.259,31.785,31.784c0,0.742-0.04,1.474-0.091,2.203h-9.176c0.071-0.725,0.116-1.459,0.116-2.203
	C414.075,263.425,403.923,253.274,391.442,253.274z M291.736,204.278c29.105,0,52.782,23.677,52.782,52.78l-0.001,21.048h-8.573
	v-21.048c0-24.376-19.831-44.208-44.208-44.208c-16.695,0-31.255,9.303-38.774,22.997c-1.937-2.242-4.01-4.361-6.219-6.336
	C256.032,214.388,272.723,204.278,291.736,204.278z M296.024,278.106h-8.573v-21.048c0-2.364,1.923-4.287,4.286-4.287
	c2.365,0,4.288,1.924,4.288,4.287v21.048H296.024z M291.736,237.097c-11.005,0-19.96,8.955-19.96,19.961v21.048h-2.211
	c-0.32-9.113-2.428-17.772-5.986-25.648c2.207-13.553,13.991-23.934,28.157-23.934c15.734,0,28.534,12.801,28.534,28.534v21.048
	h-8.572v-21.048C311.697,246.052,302.742,237.097,291.736,237.097z M253.891,278.106h-8.582
	c-1.266-23.249-20.576-41.776-44.134-41.776c-23.559,0-42.87,18.526-44.136,41.776h-8.582c1.276-27.977,24.431-50.348,52.718-50.348
	C229.463,227.757,252.617,250.129,253.891,278.106z M201.175,260.578c-10.183,0-18.593,7.667-19.798,17.528h-8.625
	c1.238-14.599,13.508-26.103,28.422-26.103c14.914,0,27.183,11.503,28.42,26.103h-8.626
	C219.765,268.245,211.357,260.578,201.175,260.578z M204.697,278.106h-7.046c0.774-1.118,2.064-1.855,3.524-1.855
	C202.635,276.251,203.923,276.988,204.697,278.106z M124.361,278.106v-6.424c0-11.006-8.954-19.961-19.96-19.961
	c-6.233,0-11.785,2.885-15.444,7.375c-1.779-2.267-3.843-4.302-6.143-6.042c5.236-6.061,12.968-9.907,21.587-9.907
	c15.733,0,28.533,12.8,28.533,28.534v3.725c-0.066,0.895-0.119,1.794-0.15,2.698h-8.423V278.106z M62.781,262.001
	c9.201,0,16.762,7.099,17.525,16.105H45.257C46.019,269.1,53.579,262.001,62.781,262.001z M108.687,278.106h-8.573v-6.424
	c0-2.364,1.924-4.287,4.288-4.287c2.364,0,4.286,1.924,4.286,4.287v6.424H108.687z M159.185,204.278
	c7.968,0,14.707,5.327,16.868,12.604c-6.915,2.739-13.283,6.564-18.885,11.279c-4.109-4.975-8.9-9.365-14.237-13.017
	C145.58,208.771,151.865,204.278,159.185,204.278z M104.401,218.902c17.063,0,32.256,8.144,41.909,20.744
	c-1.837,2.459-3.505,5.05-5.003,7.748c-7.912-11.989-21.497-19.919-36.906-19.919c-15.123,0-28.487,7.639-36.461,19.255
	c-1.682-0.263-3.405-0.402-5.16-0.402c-1.644,0-3.258,0.124-4.838,0.355C66.867,230.16,84.339,218.902,104.401,218.902z
	 M351.751,483.446c0,7.102-5.778,12.88-12.88,12.88H173.133c-7.102,0-12.88-5.778-12.88-12.88v-5.978
	c12.686,2.742,25.743,4.146,39.033,4.146h113.431c13.392,0,26.451-1.456,39.034-4.193V483.446z"/>
</svg>